:version 1.10
:name ASF
:units
  mass 1
  length 1
  angle deg
:documentation
  ASF file generated by Kaydara
:root
  axis xyz
  order  tx ty tz rx ry rz
  position 0 0 0
  orientation 0 0 0
:bonedata
  begin
    id 1
    name LeftUpLegDummy
    direction 1 -2.30186e-007 -8.31532e-007
    length 2.93387
    axis 0 0 0 xyz
  end
  begin
    id 2
    name LeftUpLeg
    direction -1.82929e-007 -1 -1.48925e-009
    length 17.3336
    axis -3.48766 0.00143442 -0.000521554 xyz
    dof rx ry rz
  end
  begin
    id 3
    name LeftLeg
    direction -1.82929e-007 -1 -5.23717e-011
    length 14.9995
    axis 3.68178 -0.00654042 -0.000282425 xyz
    dof rx ry rz
  end
  begin
    id 4
    name LeftFoot
    direction 8.31532e-007 -4.54534e-011 1
    length 6.74421
    axis 1.87234e-006 4.66016e-005 -5.96866e-006 xyz
    dof rx ry rz
  end
  begin
    id 5
    name LeftToes
    direction 0.00818058 -0.00485161 0.999955
    length 3.85048
    axis 1.06247e-005 4.65869e-005 -5.96999e-006 xyz
    dof rx ry rz
  end
  begin
    id 6
    name SpineDummy
    direction -5.8607e-008 0.943407 -0.331637
    length 5.93572
    axis 0 0 0 xyz
  end
  begin
    id 7
    name Spine
    direction -1.04988e-007 0.999988 0.00495137
    length 10.1015
    axis -0.001389 0.000121417 6.61666e-006 xyz
    dof rx ry rz
  end
  begin
    id 8
    name Spine1
    direction 0 0 0
    length 0
    axis -0.001389 0.00012144 6.56766e-006 xyz
    dof rx ry rz
  end
  begin
    id 9
    name RightShoulderDummy
    direction -0.98348 0.17941 -0.0240696
    length 3.59882
    axis -0.001389 0.00012144 6.56766e-006 xyz
  end
  begin
    id 10
    name RightShoulder
    direction -0.978693 0.204882 0.0135597
    length 2.70001
    axis 0.215806 0.000203631 -0.00679732 xyz
    dof rx ry rz
  end
  begin
    id 11
    name RightArm
    direction -1 3.85509e-006 8.31394e-007
    length 10.2459
    axis -23.2009 -0.134239 -0.964098 xyz
    dof rx ry rz
  end
  begin
    id 12
    name RightForeArm
    direction -1 3.85569e-006 8.3129e-007
    length 8.16799
    axis -9.92322 0.0658061 0.17887 xyz
    dof rx ry rz
  end
  begin
    id 13
    name RightHand
    direction -0.992843 -0.0414604 0.112003
    length 5.28593
    axis -0.00960638 0.00330669 -0.185225 xyz
    dof rx ry rz
  end
  begin
    id 14
    name LeftShoulder1Dummy
    direction 0.983523 0.179172 -0.0240748
    length 3.59866
    axis -0.001389 0.00012144 6.56766e-006 xyz
  end
  begin
    id 15
    name LeftShoulder1
    direction 0.978627 0.205195 0.0135605
    length 2.70019
    axis -0.001389 0.00012144 6.57583e-006 xyz
    dof rx ry rz
  end
  begin
    id 16
    name LeftArm
    direction 1 3.51895e-006 -8.60188e-007
    length 10.2459
    axis -23.1894 0.134785 0.967513 xyz
    dof rx ry rz
  end
  begin
    id 17
    name LeftForeArm
    direction 1 3.51921e-006 -7.32029e-007
    length 8.16799
    axis -9.91835 -0.0656957 -0.177789 xyz
    dof rx ry rz
  end
  begin
    id 18
    name LeftHand
    direction 0.992938 -0.0411636 0.11126
    length 5.32135
    axis -0.00960237 -0.00340661 0.185177 xyz
    dof rx ry rz
  end
  begin
    id 19
    name HEadDummy
    direction 1.01974e-006 0.999861 -0.016675
    length 2.99946
    axis -0.001389 0.00012144 6.56766e-006 xyz
  end
  begin
    id 20
    name HEad
    direction -0.0222689 0.980941 0.193023
    length 5.12695
    axis -0.001389 0.00012144 6.56766e-006 xyz
    dof rx ry rz
  end
  begin
    id 21
    name RightUpLegDummy
    direction -1 2.30186e-007 8.31532e-007
    length 2.93387
    axis 0 0 0 xyz
  end
  begin
    id 22
    name RightUpLeg
    direction -1.82966e-007 -1 1.56832e-007
    length 17.3336
    axis -3.4909 -0.000906625 0.00028951 xyz
    dof rx ry rz
  end
  begin
    id 23
    name RightLeg
    direction -1.82786e-007 -1 -1.80317e-007
    length 14.9995
    axis 3.68513 0.0193739 -0.131021 xyz
    dof rx ry rz
  end
  begin
    id 24
    name RightFoot
    direction 8.31721e-007 -4.63324e-011 1
    length 6.74421
    axis 4.81691e-005 -0.120479 -0.188785 xyz
    dof rx ry rz
  end
  begin
    id 25
    name RightToes
    direction 0.00124746 -0.014064 0.9999
    length 3.85082
    axis 0.000481921 0.542163 -0.142575 xyz
    dof rx ry rz
  end
:hierarchy
  begin
    root LeftUpLegDummy SpineDummy RightUpLegDummy
    LeftUpLegDummy LeftUpLeg
    LeftUpLeg LeftLeg
    LeftLeg LeftFoot
    LeftFoot LeftToes
    SpineDummy Spine
    Spine Spine1
    Spine1 RightShoulderDummy LeftShoulder1Dummy HEadDummy
    RightShoulderDummy RightShoulder
    RightShoulder RightArm
    RightArm RightForeArm
    RightForeArm RightHand
    LeftShoulder1Dummy LeftShoulder1
    LeftShoulder1 LeftArm
    LeftArm LeftForeArm
    LeftForeArm LeftHand
    HEadDummy HEad
    RightUpLegDummy RightUpLeg
    RightUpLeg RightLeg
    RightLeg RightFoot
    RightFoot RightToes
  end

:SAMPLES-PER-SECOND 30
:FULLY-SPECIFIED
:DEGREES
1
root  3.32424 33.8038 -7.24149 5.34459 10.3855 0.821332
LeftUpLeg  -7.19208 5.90643 6.51362
LeftLeg  12.5164 6.51216 1.00844
LeftFoot  1.72565 -0.000692163 0.161957
LeftToes  -22.9465 1.85109e-006 5.31342e-008
Spine  2.00338 0.788382 -0.617473
Spine1  3.60229 1.59138 -1.07319
RightShoulder  0.0521811 4.23092 9.8405
RightArm  -21.9842 -1.93637 71.2719
RightForeArm  26.7811 25.1277 4.73858
RightHand  0.646965 -17.627 -3.79947
LeftShoulder1  0.0819621 -0.198876 -9.65717
LeftArm  -16.7117 9.74216 -70.6547
LeftForeArm  34.7011 -13.4608 -2.41034
LeftHand  0.0307881 1.79012 1.90103
HEad  -17.6872 -13.5866 5.38811
RightUpLeg  -7.30422 -3.99388 -8.26712
RightLeg  8.74057 1.98805 0.177334
RightFoot  4.12477 0.0101414 0.217098
RightToes  -42.033 -0.23015 -0.325728
2
root  3.34501 33.8183 -7.31243 5.25052 9.59079 0.873891
LeftUpLeg  -7.00306 6.17445 6.37109
LeftLeg  12.4468 7.00603 1.07597
LeftFoot  1.81564 -0.00262417 0.191982
LeftToes  -22.8922 1.85109e-006 5.31342e-008
Spine  2.01292 0.872854 -0.604814
Spine1  3.61131 1.75594 -1.05972
RightShoulder  0.0519888 3.73104 9.3322
RightArm  -21.56 2.19375 70.6552
RightForeArm  24.01 34.096 6.85526
RightHand  0.782005 -18.1423 -4.52353
LeftShoulder1  0.0819621 -0.272859 -9.44562
LeftArm  -16.5466 10.1006 -70.9108
LeftForeArm  34.7388 -13.4672 -2.41148
LeftHand  0.0316582 1.79865 2.03495
HEad  -17.3939 -13.216 5.33359
RightUpLeg  -7.39204 -3.69269 -8.38456
RightLeg  8.49012 2.47509 0.209535
RightFoot  4.42243 0.00719848 0.262785
RightToes  -41.8677 -0.23015 -0.325728
3
root  3.37153 33.8292 -7.38234 5.20242 8.89908 0.932209
LeftUpLeg  -6.9081 6.30658 6.212
LeftLeg  12.4458 7.54146 1.15769
LeftFoot  1.84763 -0.00433805 0.218617
LeftToes  -22.7086 1.85109e-006 5.31342e-008
Spine  1.99266 0.982993 -0.607013
Spine1  3.56007 2.00975 -1.09761
RightShoulder  0.0516884 3.48775 8.73227
RightArm  -23.0299 7.10759 70.1691
RightForeArm  22.3596 41.9314 9.12307
RightHand  1.04227 -18.4843 -6.02675
LeftShoulder1  0.0819621 -0.313067 -9.2717
LeftArm  -16.3781 10.276 -71.0845
LeftForeArm  34.8876 -13.3673 -2.3928
LeftHand  0.0321409 1.75838 2.07961
HEad  -16.7598 -12.9346 5.43327
RightUpLeg  -7.50275 -3.5391 -8.50857
RightLeg  8.24326 2.98892 0.239775
RightFoot  4.73316 0.00355984 0.31927
RightToes  -41.9371 -0.23015 -0.325728
4
root  3.40181 33.84 -7.44415 5.17721 8.26982 1.02187
LeftUpLeg  -6.844 6.70681 6.02985
LeftLeg  12.4496 7.75559 1.19092
LeftFoot  1.86154 -0.00512717 0.230881
LeftToes  -22.4788 1.85109e-006 5.31342e-008
Spine  1.96814 1.12096 -0.638339
Spine1  3.51408 2.29211 -1.15664
RightShoulder  0.0462343 3.12256 7.90365
RightArm  -25.3706 12.7156 69.9632
RightForeArm  20.6444 48.0496 11.3363
RightHand  1.28292 -18.8136 -7.35986
LeftShoulder1  0.0819621 -0.37303 -9.11864
LeftArm  -16.5191 10.2426 -71.2277
LeftForeArm  35.229 -13.2001 -2.36148
LeftHand  0.0315247 1.69083 1.95007
HEad  -16.0737 -12.9499 5.57465
RightUpLeg  -7.61822 -3.60375 -8.66438
RightLeg  8.02068 3.66168 0.279104
RightFoot  5.03166 -0.00116984 0.39269
RightToes  -42.1834 -0.23015 -0.325728
5
root  3.43019 33.8491 -7.49495 5.17726 7.9545 1.1506
LeftUpLeg  -6.80147 6.88808 5.8201
LeftLeg  12.3512 7.88967 1.19758
LeftFoot  1.95029 -0.00633333 0.249626
LeftToes  -22.3898 1.85109e-006 5.31342e-008
Spine  1.93002 1.18844 -0.718848
Spine1  3.44946 2.41736 -1.29637
RightShoulder  0.0401049 2.77244 6.98915
RightArm  -28.1978 18.458 69.8964
RightForeArm  19.4788 52.4175 13.281
RightHand  1.1747 -18.419 -6.86351
LeftShoulder1  0.0819621 -0.484547 -8.97754
LeftArm  -16.8772 10.1755 -71.2228
LeftForeArm  35.4785 -13.131 -2.34844
LeftHand  0.0319807 1.69861 2.02199
HEad  -15.5285 -13.066 5.93188
RightUpLeg  -7.64149 -3.73922 -8.84924
RightLeg  7.76108 4.10573 0.294067
RightFoot  5.26892 -0.00457757 0.445587
RightToes  -42.2789 -0.23015 -0.325728
6
root  3.45841 33.8573 -7.5257 5.18956 7.89119 1.30009
LeftUpLeg  -6.8201 7.05451 5.60615
LeftLeg  12.3186 7.81807 1.18225
LeftFoot  2.00906 -0.00673506 0.255869
LeftToes  -22.2773 1.85109e-006 5.31342e-008
Spine  1.90229 1.2067 -0.816503
Spine1  3.40771 2.43342 -1.45823
RightShoulder  0.0344346 2.43542 6.12824
RightArm  -30.0892 23.6497 69.4907
RightForeArm  18.6648 56.1633 15.3012
RightHand  0.962739 -18.1871 -5.63757
LeftShoulder1  0.0819621 -0.602246 -8.97238
LeftArm  -17.1766 10.0427 -71.0329
LeftForeArm  35.6944 -13.131 -2.34825
LeftHand  0.0337335 1.63262 2.23119
HEad  -15.3425 -13.3307 6.252
RightUpLeg  -7.58991 -3.79524 -9.0502
RightLeg  7.5339 4.2242 0.285685
RightFoot  5.43174 -0.00583406 0.46509
RightToes  -42.312 -0.23015 -0.325728
7
root  3.48233 33.8648 -7.54732 5.2032 8.01993 1.41134
LeftUpLeg  -6.8969 7.07863 5.44806
LeftLeg  12.3487 7.68071 1.16569
LeftFoot  2.0565 -0.00683091 0.257358
LeftToes  -22.2093 1.85109e-006 5.31342e-008
Spine  1.91013 1.22604 -0.910518
Spine1  3.43214 2.45163 -1.61344
RightShoulder  0.030385 2.08976 5.40774
RightArm  -30.8162 27.7961 68.6759
RightForeArm  20.1153 60.0901 17.9247
RightHand  0.754934 -17.7467 -4.46121
LeftShoulder1  0.0819621 -0.775903 -9.02283
LeftArm  -17.3298 9.76394 -70.7597
LeftForeArm  35.7408 -13.173 -2.356
LeftHand  0.0344711 1.57883 2.30336
HEad  -15.5169 -13.7278 6.76151
RightUpLeg  -7.47687 -3.52195 -9.2073
RightLeg  7.28973 3.8275 0.242621
RightFoot  5.61534 -0.00396822 0.436128
RightToes  -42.4838 -0.23015 -0.325728
8
root  3.49319 33.8702 -7.55613 5.18577 8.31519 1.49076
LeftUpLeg  -6.97908 7.05109 5.36266
LeftLeg  12.4216 7.41597 1.13532
LeftFoot  2.0842 -0.00641966 0.250967
LeftToes  -22.2557 1.85109e-006 5.31342e-008
Spine  1.94335 1.23877 -1.01895
Spine1  3.50357 2.46198 -1.80358
RightShoulder  0.0289982 1.70452 4.8677
RightArm  -30.4559 30.7386 67.6424
RightForeArm  23.5754 64.0496 21.3543
RightHand  0.574653 -16.867 -3.50308
LeftShoulder1  0.0819621 -1.00263 -9.00883
LeftArm  -17.425 9.4081 -70.4953
LeftForeArm  35.8882 -13.1861 -2.35829
LeftHand  0.0350331 1.5565 2.36612
HEad  -15.8283 -14.2285 7.2627
RightUpLeg  -7.31775 -3.35921 -9.30895
RightLeg  7.14326 3.39331 0.206552
RightFoot  5.6737 -0.00126074 0.394101
RightToes  -42.3737 -0.23015 -0.325728
9
root  3.49985 33.8696 -7.55148 5.14702 8.72452 1.54874
LeftUpLeg  -7.04169 6.89224 5.30932
LeftLeg  12.501 7.19529 1.11185
LeftFoot  2.05735 -0.00565129 0.239026
LeftToes  -22.1744 1.85109e-006 5.31342e-008
Spine  1.96578 1.2339 -1.08965
Spine1  3.54639 2.44257 -1.92639
RightShoulder  0.028385 1.34622 4.48139
RightArm  -29.2635 32.4323 66.6305
RightForeArm  28.6073 67.7654 25.7166
RightHand  0.511828 -15.9071 -3.29085
LeftShoulder1  0.0820665 -1.20616 -8.99186
LeftArm  -17.5608 9.11585 -70.3759
LeftForeArm  36.1481 -13.1405 -2.34958
LeftHand  0.0358433 1.48074 2.43746
HEad  -15.8962 -14.7687 7.57216
RightUpLeg  -7.14829 -3.45817 -9.37685
RightLeg  7.14324 3.12064 0.190065
RightFoot  5.6489 0.000626317 0.364808
RightToes  -42.4307 -0.23015 -0.325728
10
root  3.49666 33.8683 -7.53825 5.11557 9.10148 1.57378
LeftUpLeg  -7.0623 6.77507 5.31692
LeftLeg  12.505 6.94275 1.07348
LeftFoot  2.0995 -0.00535361 0.2344
LeftToes  -22.3396 1.85109e-006 5.31342e-008
Spine  1.99588 1.2091 -1.1234
Spine1  3.6042 2.38451 -1.97839
RightShoulder  0.0284867 1.10269 4.352
RightArm  -27.418 33.0841 65.9513
RightForeArm  34.7709 70.9776 30.9971
RightHand  0.461831 -15.1249 -3.10627
LeftShoulder1  0.08237 -1.26491 -8.98018
LeftArm  -17.6813 8.80932 -70.3808
LeftForeArm  36.2772 -13.0635 -2.3352
LeftHand  0.0364121 1.40528 2.48012
HEad  -16.0606 -15.1157 7.64646
RightUpLeg  -7.01258 -3.63952 -9.39624
RightLeg  7.17839 2.95864 0.182093
RightFoot  5.57688 0.00181689 0.345102
RightToes  -42.5918 -0.23015 -0.325728
11
root  3.48089 33.8642 -7.5177 5.07293 9.40607 1.57339
LeftUpLeg  -7.03955 6.787 5.37694
LeftLeg  12.4796 6.61674 1.02025
LeftFoot  2.10994 -0.00461632 0.222942
LeftToes  -22.3726 1.85109e-006 5.31342e-008
Spine  2.01489 1.21238 -1.11509
Spine1  3.63602 2.38759 -1.95348
RightShoulder  0.0292738 0.926155 4.61552
RightArm  -24.6953 32.6241 65.4311
RightForeArm  42.346 73.4709 36.7836
RightHand  0.546243 -14.4549 -3.93361
LeftShoulder1  0.0827533 -1.24686 -9.0743
LeftArm  -17.6724 8.5952 -70.4466
LeftForeArm  36.3142 -13.0449 -2.33172
LeftHand  0.0365741 1.40596 2.50033
HEad  -16.2326 -15.4748 7.44873
RightUpLeg  -6.91504 -3.75309 -9.37579
RightLeg  7.28839 2.79785 0.177667
RightFoot  5.3885 0.00321082 0.321446
RightToes  -42.4249 -0.23015 -0.325728
12
root  3.45522 33.8614 -7.49722 5.04737 9.6816 1.54419
LeftUpLeg  -7.01382 6.66901 5.47064
LeftLeg  12.4102 6.47015 0.989723
LeftFoot  2.16527 -0.00466595 0.223713
LeftToes  -22.539 1.85109e-006 5.31342e-008
Spine  2.05417 1.215 -1.08783
Spine1  3.70564 2.39694 -1.90055
RightShoulder  0.030615 0.80332 5.02797
RightArm  -21.476 31.0766 65.4618
RightForeArm  50.0745 75.0142 41.625
RightHand  0.694729 -13.6745 -5.41669
LeftShoulder1  0.0830967 -1.14537 -9.14873
LeftArm  -17.5991 8.42678 -70.6031
LeftForeArm  36.1916 -13.148 -2.35095
LeftHand  0.0359974 1.45746 2.44776
HEad  -16.4794 -15.6647 7.24016
RightUpLeg  -6.88343 -3.90496 -9.29505
RightLeg  7.47768 2.66807 0.178345
RightFoot  5.21885 0.00421927 0.30301
RightToes  -42.4412 -0.23015 -0.325728
13
root  3.42224 33.8568 -7.47397 5.03506 9.98857 1.50415
LeftUpLeg  -6.99383 6.38331 5.57511
LeftLeg  12.3191 6.46314 0.978166
LeftFoot  2.21901 -0.00507156 0.230017
LeftToes  -22.5809 1.85109e-006 5.31342e-008
Spine  2.09753 1.22444 -1.04822
Spine1  3.77675 2.4303 -1.83596
RightShoulder  0.0324087 0.742629 5.47213
RightArm  -17.8935 28.3321 65.812
RightForeArm  54.2283 75.4477 43.242
RightHand  0.890258 -12.917 -7.47843
LeftShoulder1  0.0832807 -1.01711 -9.23314
LeftArm  -17.3902 8.33623 -70.8084
LeftForeArm  36.0267 -13.3235 -2.38365
LeftHand  0.0354999 1.4921 2.39871
HEad  -16.5244 -15.7702 6.98295
RightUpLeg  -6.83106 -3.93185 -9.18774
RightLeg  7.61288 2.38658 0.165336
RightFoot  5.05957 0.00590603 0.27331
RightToes  -42.3658 -0.23015 -0.325728
